<?xml version="1.0" encoding="utf-8"?>
<!-- Generator: Adobe Illustrator 26.2.1, SVG Export Plug-In . SVG Version: 6.00 Build 0)  -->
<svg version="1.1" id="Layer_1" xmlns="http://www.w3.org/2000/svg" xmlns:xlink="http://www.w3.org/1999/xlink" x="0px" y="0px"
	 viewBox="0 0 375 683" style="enable-background:new 0 0 375 683;" xml:space="preserve">
<style type="text/css">
	.st0{clip-path:url(#SVGID_00000077298573824731801010000005312854143428449463_);}
	.st1{fill:#FFFFFF;}
	.st2{fill:url(#SVGID_00000024699335851135690250000003927493267298693546_);stroke:#1E8A49;stroke-width:4;}
	.st3{fill:#3A3A3A;}
	.st4{fill:none;stroke:#1E8A49;stroke-width:4;}
	.st5{fill:#FFFFFF;stroke:#1E8A49;stroke-width:4;}
	.st6{fill:#F14C4C;}
	.st7{fill:#C4C4C4;fill-opacity:0.19;}
</style>
<g>
	<defs>
		<path id="SVGID_1_" d="M19.9,0h334.1c11,0,19.9,7.5,19.9,16.8v649.4c0,9.3-8.9,16.8-19.9,16.8H19.9C8.9,683,0,675.5,0,666.2V16.8
			C0,7.5,8.9,0,19.9,0z"/>
	</defs>
	<clipPath id="SVGID_00000026854920745680499960000007931266230318446738_">
		<use xlink:href="#SVGID_1_"  style="overflow:visible;"/>
	</clipPath>
	<g style="clip-path:url(#SVGID_00000026854920745680499960000007931266230318446738_);">
		<path class="st1" d="M19.9,0h334.1c11,0,19.9,7.5,19.9,16.8v649.4c0,9.3-8.9,16.8-19.9,16.8H19.9C8.9,683,0,675.5,0,666.2V16.8
			C0,7.5,8.9,0,19.9,0z"/>
		
			<linearGradient id="SVGID_00000130645996939831650430000007359655309573624505_" gradientUnits="userSpaceOnUse" x1="187" y1="687" x2="187" y2="129" gradientTransform="matrix(1 0 0 -1 0 812)">
			<stop  offset="0" style="stop-color:#1E8A49;stop-opacity:0.31"/>
			<stop  offset="1" style="stop-color:#C7C7C7;stop-opacity:0"/>
		</linearGradient>
		<path style="fill:url(#SVGID_00000130645996939831650430000007359655309573624505_);stroke:#1E8A49;stroke-width:4;" d="
			M50.8,205.9L1,255.5V683h372V226.8l-53.9-64.1l-39.3,43.2L208,135.4l-17.8,14.2L161,125l-94.6,92.1L50.8,205.9z"/>
		<path class="st3" d="M0,538h374v145H0V538z"/>
		<path d="M87.5,89h-4.3V71.2h-6.1v-3.5h16.5v3.5h-6.1V89z M99.4,89h-4.1V73.2h4.1V89z M99.4,70.3h-4.2v-3.9h4.2V70.3z M106.7,73.2
			l0.1,2.4c0.5-0.8,1.2-1.5,2.1-2c0.9-0.5,1.8-0.7,2.8-0.7c1.1,0,2,0.2,2.7,0.7c0.7,0.4,1.3,1.2,1.7,2.1c0.5-0.9,1.2-1.6,2.1-2.1
			c0.9-0.5,1.9-0.7,2.9-0.7c2,0,3.3,0.6,4,1.9c0.7,1.2,1,2.9,1,5V89h-4.1v-7.7v-0.6c0-1.3-0.2-2.3-0.5-3.2c-0.3-0.8-0.9-1.2-1.9-1.2
			c-2.1,0-3.1,1.8-3.1,5.4V89h-4.1v-8.1v-1.1c0-0.9-0.2-1.7-0.5-2.4c-0.4-0.7-1-1-1.8-1c-1.1,0-1.9,0.5-2.4,1.5
			c-0.5,1-0.7,2.1-0.7,3.3V89h-4.1V77c0-1.4,0-2.7-0.1-3.9H106.7z M133.7,95.5h-4.1V77.8c0-1.8-0.1-3.4-0.2-4.6h3.9l0.1,2.5
			c1.2-1.8,2.9-2.8,5.2-2.8c1.1,0,2,0.2,2.8,0.7c0.8,0.4,1.5,1,2,1.8c0.5,0.8,0.9,1.6,1.2,2.6c0.3,1,0.4,1.9,0.4,3
			c0,1.5-0.2,2.9-0.7,4.2c-0.4,1.3-1.1,2.3-2.1,3.1c-1,0.8-2.2,1.2-3.8,1.2c-1,0-1.9-0.2-2.8-0.6s-1.5-1-2-1.8
			c0.1,0.5,0.1,1.3,0.1,2.4V95.5z M140.8,81.1c0-0.8-0.1-1.6-0.3-2.3c-0.2-0.7-0.6-1.3-1.1-1.8c-0.5-0.5-1.2-0.7-2-0.7
			c-0.8,0-1.5,0.2-2.1,0.7c-0.6,0.5-1,1.1-1.2,1.8c-0.2,0.7-0.4,1.5-0.4,2.3c0,1.3,0.3,2.4,0.8,3.4c0.6,0.9,1.5,1.4,2.7,1.4
			c0.8,0,1.5-0.2,2-0.7c0.5-0.5,0.9-1.1,1.2-1.9C140.7,82.6,140.8,81.9,140.8,81.1z M171.6,84.7l0.2,3.8c-1.8,0.5-3.4,0.7-4.8,0.7
			c-1.7,0-3.2-0.2-4.6-0.7c-1.4-0.4-2.7-1.1-3.7-2c-1.1-0.9-1.9-2-2.5-3.4c-0.6-1.3-0.9-2.9-0.9-4.6c0-1.7,0.3-3.3,0.8-4.7
			c0.5-1.4,1.3-2.5,2.3-3.5c1-1,2.2-1.7,3.6-2.2c1.4-0.5,3-0.7,4.7-0.7c1.5,0,3.3,0.3,5.1,0.9l-0.3,3.7c-1.4-0.8-2.9-1.2-4.6-1.2
			c-1.4,0-2.6,0.3-3.7,0.9c-1.1,0.6-1.9,1.4-2.4,2.5c-0.6,1.1-0.8,2.3-0.8,3.7c0,1.4,0.3,2.8,0.9,3.9c0.6,1.2,1.5,2.1,2.6,2.7
			s2.4,1,3.9,1C168.5,85.6,170,85.3,171.6,84.7z M187,89h-3.6l-0.1-2.4c-0.5,0.8-1.2,1.5-2.1,2c-0.9,0.4-1.8,0.7-2.9,0.7
			c-1,0-2-0.2-2.8-0.5c-0.8-0.4-1.5-0.9-1.9-1.7c-0.5-0.8-0.7-1.7-0.7-2.7c0-2,0.8-3.3,2.3-4.1c1.5-0.7,3.4-1.1,5.7-1.1
			c0.3,0,0.5,0,0.6,0c0.1,0,0.3,0,0.6,0c0.3,0,0.6,0,1,0c0-1.2-0.3-2.1-0.9-2.6c-0.6-0.6-1.5-0.9-2.6-0.9c-1.8,0-3.4,0.6-4.9,1.7
			l-0.1-3.6c1.7-0.7,3.5-1.1,5.5-1.1c0.7,0,1.5,0.1,2.2,0.2c0.7,0.1,1.4,0.4,2,0.7c0.6,0.3,1.1,0.8,1.5,1.3c0.4,0.6,0.7,1.2,0.8,1.9
			c0.1,0.7,0.2,1.6,0.2,2.6c0,1,0,2.1,0,3.1c0,1,0,2,0,2.9C186.9,86.5,187,87.6,187,89z M183.2,81.8c-0.1,0-0.3,0-0.5,0h-0.5
			c-0.9,0-1.7,0.1-2.5,0.2c-0.7,0.1-1.4,0.3-1.9,0.8c-0.6,0.4-0.8,1-0.8,1.8c0,0.6,0.2,1.1,0.7,1.5c0.5,0.4,1.1,0.5,1.7,0.5
			c1.2,0,2.2-0.5,2.8-1.4C182.9,84.2,183.2,83.1,183.2,81.8z M199,89h-4.6l-5.9-15.8h4.5l2.6,7.6c0.7,1.9,1.1,3.5,1.3,4.7
			c0.2-1.3,0.6-2.5,1-3.7l2.8-8.6h4.1L199,89z M219.3,84.8l0.1,3.5c-1.7,0.7-3.5,1.1-5.4,1.1c-1.3,0-2.5-0.2-3.5-0.5
			c-1-0.4-1.9-0.9-2.6-1.6c-0.7-0.7-1.3-1.6-1.6-2.6c-0.4-1-0.6-2.2-0.6-3.5c0-1.2,0.2-2.3,0.5-3.3c0.4-1,0.9-1.9,1.5-2.6
			c0.7-0.8,1.5-1.3,2.4-1.8c1-0.4,2.1-0.6,3.3-0.6c1.2,0,2.2,0.2,3.1,0.6s1.6,1,2.2,1.8c0.6,0.8,1,1.6,1.3,2.6
			c0.3,1,0.4,2.1,0.4,3.2c0,0.2,0,0.4,0,0.5c0,0.1,0,0.2,0,0.4c0,0.2,0,0.3,0,0.5h-10.6c0.1,1.2,0.6,2.2,1.4,2.9c0.9,0.7,2,1,3.2,1
			C215.8,86.4,217.4,85.8,219.3,84.8z M216.5,79.6c0-0.7-0.2-1.4-0.4-2c-0.2-0.6-0.6-1.1-1.1-1.4c-0.5-0.4-1.1-0.5-1.8-0.5
			c-0.7,0-1.4,0.2-1.9,0.5c-0.5,0.4-0.9,0.8-1.2,1.4c-0.3,0.6-0.5,1.2-0.5,2H216.5z M239.7,89h-4.3V71.2h-6.1v-3.5h16.5v3.5h-6.1V89
			z M251.7,89h-4.1V77.9c-0.1-2.6-0.1-4.2-0.1-4.8h3.7l0.1,4c0.4-1.2,0.9-2.2,1.6-3c0.7-0.8,1.7-1.1,2.8-1.1c0.4,0,0.8,0.1,1.2,0.2
			V77c-0.5-0.1-1-0.2-1.4-0.2c-1,0-1.7,0.3-2.3,0.8s-1,1.2-1.2,2c-0.2,0.8-0.3,1.7-0.3,2.6v0.3V89z M272,89h-3.6l-0.1-2.4
			c-0.5,0.8-1.2,1.5-2.1,2c-0.9,0.4-1.8,0.7-2.9,0.7c-1,0-2-0.2-2.8-0.5c-0.8-0.4-1.5-0.9-1.9-1.7c-0.5-0.8-0.7-1.7-0.7-2.7
			c0-2,0.8-3.3,2.3-4.1c1.5-0.7,3.4-1.1,5.7-1.1c0.3,0,0.5,0,0.6,0c0.1,0,0.3,0,0.6,0c0.3,0,0.6,0,1,0c0-1.2-0.3-2.1-0.9-2.6
			s-1.5-0.9-2.6-0.9c-1.8,0-3.4,0.6-4.9,1.7l-0.1-3.6c1.7-0.7,3.5-1.1,5.5-1.1c0.7,0,1.5,0.1,2.2,0.2c0.7,0.1,1.4,0.4,2,0.7
			c0.6,0.3,1.1,0.8,1.5,1.3c0.4,0.6,0.7,1.2,0.8,1.9c0.1,0.7,0.2,1.6,0.2,2.6c0,1,0,2.1,0,3.1c0,1,0,2,0,2.9
			C271.9,86.5,271.9,87.6,272,89z M268.1,81.8c-0.1,0-0.3,0-0.5,0h-0.5c-0.9,0-1.7,0.1-2.5,0.2c-0.7,0.1-1.4,0.3-1.9,0.8
			c-0.6,0.4-0.8,1-0.8,1.8c0,0.6,0.2,1.1,0.7,1.5c0.5,0.4,1.1,0.5,1.7,0.5c1.2,0,2.2-0.5,2.8-1.4C267.8,84.2,268.1,83.1,268.1,81.8z
			 M279.4,89h-4.1V73.2h4.1V89z M279.4,70.3h-4.2v-3.9h4.2V70.3z M286.8,89h-4.1V66h4.1V89z"/>
		<path d="M161.4,52.8l0.2-1.9c0.8,0.5,1.6,0.7,2.4,0.7c0.5,0,0.9-0.1,1.3-0.4c0.4-0.2,0.6-0.6,0.6-1.1c0-0.5-0.2-0.8-0.5-1
			c-0.3-0.2-0.9-0.5-1.7-0.8c-0.8-0.4-1.4-0.8-1.9-1.2c-0.4-0.4-0.6-1.1-0.6-1.9c0-0.7,0.2-1.2,0.5-1.7c0.3-0.5,0.8-0.8,1.4-1
			c0.6-0.2,1.2-0.3,1.9-0.3c0.9,0,1.7,0.1,2.5,0.4l-0.2,1.8c-0.8-0.4-1.5-0.5-2.2-0.5c-0.5,0-0.9,0.1-1.2,0.3
			c-0.3,0.2-0.5,0.5-0.5,1c0,0.4,0.1,0.7,0.4,0.9c0.3,0.2,0.8,0.4,1.7,0.8c0.9,0.4,1.6,0.8,2,1.3c0.4,0.4,0.6,1.1,0.6,1.9
			c0,0.6-0.1,1.1-0.3,1.5c-0.2,0.4-0.5,0.8-0.9,1c-0.4,0.3-0.8,0.5-1.3,0.6c-0.5,0.1-1,0.2-1.5,0.2
			C163.2,53.2,162.3,53.1,161.4,52.8z M174,51.3l0.1,1.6c-0.5,0.1-1,0.2-1.4,0.2c-0.7,0-1.2-0.1-1.6-0.4c-0.4-0.2-0.7-0.6-0.8-1.1
			c-0.2-0.5-0.2-1-0.2-1.7v-3.3h-1.5v-1.5h1.5v-1.6l2-0.7v2.3h1.8v1.5h-1.8v2.9c0,0.6,0.1,1.1,0.2,1.4c0.1,0.3,0.5,0.5,1,0.5
			C173.5,51.4,173.7,51.4,174,51.3z M182.8,49.1c0,0.6-0.1,1.2-0.3,1.7c-0.2,0.5-0.5,0.9-0.8,1.3c-0.4,0.4-0.8,0.6-1.3,0.8
			c-0.5,0.2-1.1,0.3-1.7,0.3c-0.8,0-1.5-0.2-2.2-0.5c-0.6-0.4-1.1-0.9-1.4-1.5c-0.3-0.6-0.5-1.4-0.5-2.2s0.2-1.5,0.5-2.1
			c0.3-0.6,0.8-1.1,1.4-1.5c0.6-0.3,1.3-0.5,2.1-0.5c0.6,0,1.2,0.1,1.7,0.3c0.5,0.2,0.9,0.5,1.3,0.9c0.4,0.4,0.6,0.8,0.8,1.3
			C182.7,47.9,182.8,48.5,182.8,49.1z M180.7,49.1c0-0.4-0.1-0.8-0.2-1.3c-0.1-0.4-0.4-0.8-0.7-1c-0.3-0.3-0.7-0.4-1.1-0.4
			c-0.4,0-0.8,0.1-1.1,0.4c-0.3,0.3-0.5,0.6-0.7,1c-0.1,0.4-0.2,0.8-0.2,1.2c0,0.4,0.1,0.9,0.2,1.3c0.1,0.4,0.4,0.8,0.7,1
			c0.3,0.3,0.7,0.4,1.1,0.4c0.3,0,0.6-0.1,0.9-0.2c0.2-0.2,0.5-0.4,0.6-0.6c0.2-0.2,0.3-0.5,0.4-0.8
			C180.7,49.7,180.7,49.4,180.7,49.1z M186.2,56.2h-2v-8.9c0-0.9,0-1.7-0.1-2.3h2l0,1.2c0.6-0.9,1.5-1.4,2.6-1.4
			c0.5,0,1,0.1,1.4,0.3c0.4,0.2,0.7,0.5,1,0.9c0.3,0.4,0.5,0.8,0.6,1.3c0.1,0.5,0.2,1,0.2,1.5c0,0.8-0.1,1.4-0.3,2.1
			c-0.2,0.6-0.6,1.1-1.1,1.5c-0.5,0.4-1.1,0.6-1.9,0.6c-0.5,0-1-0.1-1.4-0.3c-0.4-0.2-0.8-0.5-1-0.9c0,0.3,0,0.7,0,1.2V56.2z
			 M189.8,49.1c0-0.4-0.1-0.8-0.2-1.2c-0.1-0.4-0.3-0.7-0.5-0.9c-0.2-0.2-0.6-0.4-1-0.4c-0.4,0-0.8,0.1-1,0.4
			c-0.3,0.2-0.5,0.5-0.6,0.9c-0.1,0.4-0.2,0.8-0.2,1.2c0,0.7,0.1,1.2,0.4,1.7c0.3,0.5,0.7,0.7,1.3,0.7c0.4,0,0.7-0.1,1-0.4
			c0.3-0.2,0.5-0.6,0.6-0.9C189.7,49.8,189.8,49.4,189.8,49.1z M204.5,49.2v1.6h-1.4V53H201v-2.2h-4.5V49l4-6.7h2.7v6.9H204.5z
			 M201,49.2l0.1-4.5c0-0.2,0-0.5,0.1-0.7c-0.1,0.3-0.2,0.5-0.3,0.6l-2.5,4.6H201z"/>
		<path class="st4" d="M36.9,491c92.3-24.8,277.6-85.1,280.7-127.5c4-53-170.5-11.5-170.5-56s105.7-10.5,105.7-38
			c0-33-100.2-2.5-100.2-42"/>
		<ellipse class="st5" cx="43.9" cy="488" rx="13" ry="13"/>
		<ellipse class="st5" cx="162.6" cy="452" rx="13" ry="13"/>
		<ellipse class="st5" cx="318.1" cy="359" rx="13" ry="13"/>
		<ellipse class="st5" cx="192.5" cy="329" rx="13" ry="13"/>
		<ellipse class="st5" cx="156.6" cy="232" rx="13" ry="13"/>
		<path class="st6" d="M155.6,174c-3.7,0-7.3,1.5-9.9,4.1c-2.6,2.7-4.1,6.2-4.1,10c0,3.1,1,6,2.8,8.5c0,0,0.4,0.5,0.4,0.6l10.7,12.8
			l10.7-12.8c0.1-0.1,0.4-0.6,0.4-0.6l0,0c1.8-2.4,2.8-5.4,2.8-8.5c0-3.8-1.5-7.3-4.1-10C162.8,175.5,159.3,174,155.6,174z
			 M155.6,193.3c-1,0-2-0.3-2.8-0.9c-0.8-0.6-1.5-1.4-1.9-2.3c-0.4-0.9-0.5-2-0.3-3c0.2-1,0.7-1.9,1.4-2.6c0.7-0.7,1.6-1.2,2.6-1.4
			c1-0.2,2-0.1,2.9,0.3c0.9,0.4,1.7,1,2.3,1.9c0.6,0.8,0.9,1.8,0.9,2.9c0,1.4-0.5,2.7-1.5,3.6C158.2,192.7,156.9,193.3,155.6,193.3z
			"/>
		<path class="st7" d="M32.9,604h136.6c4.4,0,8,3.6,8,8v59c0,4.4-3.6,8-8,8H32.9c-4.4,0-8-3.6-8-8v-59C24.9,607.6,28.5,604,32.9,604
			z"/>
		<path class="st7" d="M205.5,604h136.6c4.4,0,8,3.6,8,8v59c0,4.4-3.6,8-8,8H205.5c-4.4,0-8-3.6-8-8v-59
			C197.5,607.6,201,604,205.5,604z"/>
		<path class="st1" d="M72.3,628.5v1.5h-5.6v-9.3h5.5v1.5h-3.6v2.3h3.3v1.5h-3.3v2.5H72.3z M79.4,628.5v1.5h-5.5v-9.3h1.9v7.8H79.4z
			 M86,628.5v1.5h-5.6v-9.3H86v1.5h-3.6v2.3h3.3v1.5h-3.3v2.5H86z M92.2,630h-2.3l-3.2-9.3h2l2,6c0.2,0.5,0.3,1,0.4,1.5
			c0.2-0.6,0.3-1.1,0.5-1.6l1.9-5.9h1.9L92.2,630z M104.8,630h-2.1l-0.8-2.1h-3.9l-0.8,2.1h-1.9l3.6-9.3h2.1L104.8,630z
			 M101.4,626.3l-1.2-3.3c0-0.1-0.1-0.3-0.2-0.6c0,0.1-0.1,0.3-0.1,0.4c0,0.1-0.1,0.3-0.1,0.3l-1.1,3.1H101.4z M109.3,630h-1.9v-7.8
			h-2.7v-1.5h7.2v1.5h-2.7V630z M114.9,630H113v-9.3h1.9V630z M125.6,625.4c0,0.9-0.2,1.8-0.5,2.5c-0.4,0.7-0.9,1.3-1.6,1.7
			c-0.7,0.4-1.5,0.6-2.4,0.6c-1,0-1.8-0.2-2.5-0.6c-0.7-0.4-1.2-1-1.6-1.7c-0.4-0.7-0.5-1.6-0.5-2.6c0-1,0.2-1.8,0.5-2.5
			c0.4-0.7,0.9-1.3,1.6-1.7c0.7-0.4,1.5-0.6,2.5-0.6c0.7,0,1.4,0.1,1.9,0.4c0.6,0.2,1.1,0.6,1.4,1c0.4,0.4,0.7,1,0.9,1.6
			C125.5,624,125.6,624.7,125.6,625.4z M123.6,625.4c0-0.4-0.1-0.8-0.2-1.2c-0.1-0.4-0.3-0.8-0.5-1.1c-0.2-0.3-0.5-0.6-0.8-0.8
			c-0.3-0.2-0.7-0.3-1.1-0.3c-0.6,0-1.1,0.2-1.4,0.5c-0.4,0.3-0.7,0.8-0.8,1.3c-0.2,0.5-0.3,1.1-0.3,1.6c0,0.6,0.1,1.1,0.3,1.6
			c0.2,0.5,0.5,1,0.9,1.3c0.4,0.3,0.9,0.5,1.4,0.5c0.4,0,0.8-0.1,1.1-0.3c0.3-0.2,0.6-0.5,0.8-0.8c0.2-0.3,0.4-0.7,0.5-1.1
			C123.5,626.2,123.6,625.8,123.6,625.4z M134.7,630h-2.3l-3.1-5.6c-0.2-0.4-0.5-0.9-0.8-1.7c0.1,1,0.2,1.8,0.2,2.4v4.9h-1.8v-9.3
			h2.2l3.1,5.7c0.1,0.2,0.2,0.3,0.2,0.4c0,0.1,0.1,0.3,0.2,0.5c0.1,0.2,0.2,0.5,0.3,0.7c-0.1-0.7-0.2-1.4-0.2-2.3v-5h1.8V630z"/>
		<path class="st1" d="M46.8,659.7l0.2-2.8c1.2,0.5,2.4,0.8,3.6,0.8c0.9,0,1.7-0.2,2.3-0.6c0.7-0.4,1-1,1-1.8c0-0.9-0.4-1.6-1.2-1.9
			c-0.8-0.3-1.7-0.5-2.8-0.5c-0.2,0-0.6,0-1.1,0v-2.6c0.2,0,0.6,0,1,0c1.1,0,2-0.2,2.8-0.5c0.8-0.3,1.2-0.9,1.2-1.8
			c0-0.5-0.1-0.8-0.4-1.1c-0.3-0.3-0.6-0.5-1.1-0.6c-0.4-0.1-0.8-0.2-1.3-0.2c-1.4,0-2.6,0.3-3.6,0.8l-0.2-2.6
			c1.5-0.5,3-0.7,4.4-0.7c1.6,0,2.9,0.3,4,1c1,0.7,1.6,1.7,1.6,3.2c0,0.6-0.1,1.1-0.4,1.6c-0.2,0.5-0.6,0.9-1.1,1.3
			c-0.5,0.3-1,0.6-1.5,0.7c0.8,0.3,1.3,0.5,1.5,0.6c0.5,0.4,0.9,0.8,1.2,1.5c0.3,0.6,0.4,1.3,0.4,2c0,1-0.3,1.9-0.9,2.6
			c-0.6,0.7-1.4,1.2-2.4,1.5c-1,0.3-2,0.5-3,0.5c-0.7,0-1.4,0-2.1-0.1C48.2,660,47.5,659.9,46.8,659.7z M63.2,656.8l-2,5.8h-2.7
			l1.4-5.8H63.2z M75.6,657.4v2.6H64.9v-2.7c1.1-1,1.9-1.7,2.4-2.2c0.5-0.5,1.2-1.1,1.9-1.9c0.7-0.8,1.3-1.6,1.8-2.4
			c0.5-0.8,0.7-1.5,0.7-2.1c0-0.7-0.2-1.3-0.7-1.7c-0.5-0.4-1-0.6-1.7-0.6c-1.2,0-2.5,0.4-3.8,1.3l-0.3-2.8c1.7-0.7,3.3-1.1,4.9-1.1
			c1,0,1.8,0.2,2.6,0.5c0.8,0.3,1.4,0.9,1.8,1.5c0.5,0.7,0.7,1.5,0.7,2.5c0,1-0.3,2.1-1,3.2c-0.7,1.1-1.4,2.2-2.4,3.2
			c-0.9,1-1.9,1.9-2.8,2.8L75.6,657.4z M88.2,652c0,0.9,0,1.6-0.1,2.3c-0.1,0.7-0.2,1.3-0.4,2c-0.2,0.7-0.5,1.3-0.9,1.8
			c-0.5,0.7-1.1,1.2-1.8,1.6c-0.7,0.4-1.5,0.6-2.4,0.6c-1.4,0-2.6-0.4-3.4-1.2c-0.8-0.8-1.4-1.8-1.7-3c-0.3-1.2-0.5-2.6-0.5-4
			c0-1.4,0.2-2.8,0.5-4c0.3-1.2,0.9-2.3,1.7-3.1c0.8-0.8,2-1.2,3.4-1.2s2.6,0.4,3.4,1.2c0.8,0.8,1.4,1.8,1.7,3.1
			C88.1,649.3,88.2,650.6,88.2,652z M85,652c0-0.8,0-1.7-0.1-2.5c-0.1-0.9-0.3-1.6-0.6-2.3c-0.3-0.7-0.9-1-1.5-1
			c-0.7,0-1.2,0.3-1.6,1c-0.3,0.7-0.6,1.4-0.6,2.3c-0.1,0.8-0.1,1.7-0.1,2.6c0,1.5,0.1,2.8,0.4,4c0.3,1.2,0.9,1.8,1.9,1.8
			c0.7,0,1.2-0.3,1.5-1c0.4-0.6,0.6-1.4,0.7-2.2c0.1-0.8,0.1-1.7,0.1-2.5V652z M100.5,652c0,0.9,0,1.6-0.1,2.3
			c-0.1,0.7-0.2,1.3-0.4,2c-0.2,0.7-0.5,1.3-0.9,1.8c-0.5,0.7-1.1,1.2-1.8,1.6c-0.7,0.4-1.5,0.6-2.4,0.6c-1.4,0-2.6-0.4-3.4-1.2
			c-0.8-0.8-1.4-1.8-1.7-3c-0.3-1.2-0.5-2.6-0.5-4c0-1.4,0.2-2.8,0.5-4c0.3-1.2,0.9-2.3,1.7-3.1c0.8-0.8,2-1.2,3.4-1.2
			c1.4,0,2.6,0.4,3.4,1.2c0.8,0.8,1.4,1.8,1.7,3.1C100.4,649.3,100.5,650.6,100.5,652z M97.3,652c0-0.8,0-1.7-0.1-2.5
			c-0.1-0.9-0.3-1.6-0.6-2.3c-0.3-0.7-0.9-1-1.5-1c-0.7,0-1.2,0.3-1.6,1c-0.3,0.7-0.6,1.4-0.6,2.3c-0.1,0.8-0.1,1.7-0.1,2.6
			c0,1.5,0.1,2.8,0.4,4c0.3,1.2,0.9,1.8,1.9,1.8c0.7,0,1.2-0.3,1.5-1c0.4-0.6,0.6-1.4,0.7-2.2c0.1-0.8,0.1-1.7,0.1-2.5V652z
			 M112.2,653.1v6.9h-3.2v-16h8.9v2.6h-5.6v3.8h5.4v2.6H112.2z M129.7,657.4v2.6h-9.5v-16h9.5v2.6h-6.2v3.9h5.7v2.6h-5.7v4.3H129.7z
			 M142,657.4v2.6h-9.5v-16h9.5v2.6h-6.2v3.9h5.7v2.6h-5.7v4.3H142z M150.9,660h-3.2v-13.4h-4.6V644h12.4v2.6h-4.6V660z"/>
		<path class="st1" d="M232.6,656.9v3.1h-3.3v-3.1H232.6z M242.4,651.4c1,0.3,1.8,0.8,2.3,1.5c0.6,0.7,0.8,1.6,0.8,2.7
			c0,1-0.3,1.9-0.8,2.6c-0.5,0.7-1.2,1.2-2,1.6c-0.8,0.3-1.7,0.5-2.7,0.5c-1,0-1.9-0.2-2.7-0.5c-0.9-0.3-1.6-0.8-2.1-1.5
			c-0.5-0.7-0.8-1.5-0.8-2.5c0-0.6,0.1-1.3,0.3-1.8c0.2-0.6,0.6-1.1,1-1.5c0.5-0.4,1-0.7,1.6-0.8c-0.8-0.2-1.5-0.7-2-1.4
			c-0.5-0.7-0.7-1.4-0.7-2.3c0-0.9,0.2-1.7,0.7-2.4c0.5-0.6,1.1-1.1,2-1.4c0.8-0.3,1.7-0.5,2.6-0.5c1.4,0,2.6,0.3,3.6,1
			c1,0.6,1.5,1.6,1.5,3c0,0.9-0.2,1.6-0.7,2.3C243.9,650.6,243.3,651.1,242.4,651.4z M239.7,652.9c-0.4,0.2-0.8,0.4-1.1,0.7
			c-0.3,0.2-0.5,0.5-0.7,0.9c-0.2,0.3-0.3,0.7-0.3,1.1c0,0.4,0.1,0.8,0.3,1.2s0.5,0.7,0.9,0.9c0.4,0.2,0.8,0.3,1.2,0.3
			c0.7,0,1.2-0.2,1.6-0.6c0.4-0.4,0.6-0.9,0.6-1.6c0-0.7-0.2-1.3-0.7-1.7C241.2,653.6,240.5,653.2,239.7,652.9z M240.3,650.4
			c0.6-0.3,1-0.6,1.3-1c0.3-0.4,0.5-0.8,0.5-1.4c0-0.6-0.2-1.1-0.6-1.5c-0.4-0.4-0.9-0.5-1.5-0.5c-0.6,0-1.1,0.2-1.5,0.5
			c-0.4,0.3-0.7,0.8-0.7,1.4c0,0.5,0.1,0.8,0.4,1.1c0.2,0.3,0.5,0.5,0.8,0.7C239.4,650,239.8,650.2,240.3,650.4z M272.1,660h-3.2
			v-9.5c0-1.4,0.1-2.9,0.2-4.3h-0.1c-0.2,0.6-0.3,1.2-0.5,1.7l-4.1,12.1h-3l-3.4-10c-0.4-1.2-0.8-2.5-1.1-3.8h-0.1
			c0.2,1.5,0.2,2.9,0.2,4.2v9.6H254v-16h5.1l2.9,8.4c0.5,1.4,0.8,2.7,1,3.9c0.1-0.7,0.3-1.3,0.4-1.7c0.1-0.5,0.3-1,0.4-1.5l3.1-9.1
			h5.2V660z M278.7,660h-3.2v-16h3.2V660z M291.7,657.4v2.6h-9.5v-16h3.2v13.4H291.7z M303,657.4v2.6h-9.5v-16h9.5v2.6h-6.2v3.9h5.7
			v2.6h-5.7v4.3H303z M305.6,659.6l0.3-2.9c1.3,0.7,2.5,1,3.6,1c0.7,0,1.4-0.2,1.9-0.6c0.6-0.4,0.8-0.9,0.8-1.6
			c0-0.7-0.2-1.2-0.7-1.5c-0.5-0.3-1.3-0.7-2.6-1.3c-1.2-0.5-2.2-1.1-2.8-1.8c-0.6-0.7-0.9-1.6-0.9-2.8c0-1,0.3-1.9,0.8-2.6
			c0.5-0.7,1.2-1.2,2.1-1.5c0.9-0.3,1.8-0.5,2.8-0.5c1.3,0,2.6,0.2,3.8,0.6l-0.3,2.6c-1.2-0.5-2.3-0.8-3.3-0.8
			c-0.7,0-1.3,0.2-1.8,0.5c-0.5,0.3-0.8,0.8-0.8,1.5c0,0.6,0.2,1.1,0.6,1.3c0.4,0.2,1.2,0.7,2.6,1.3c1.4,0.6,2.4,1.2,3,1.9
			c0.6,0.7,1,1.6,1,2.8c0,0.9-0.2,1.6-0.5,2.2c-0.3,0.6-0.8,1.2-1.3,1.6c-0.6,0.4-1.2,0.7-1.9,0.9c-0.7,0.2-1.5,0.3-2.3,0.3
			C308.3,660.4,307,660.1,305.6,659.6z"/>
		<path class="st1" d="M241.6,632v-9.3h2.1c0.6,0,1.1,0,1.5,0.1c0.5,0,0.9,0.1,1.4,0.3c0.5,0.1,0.9,0.3,1.2,0.6
			c0.3,0.2,0.6,0.5,0.8,0.7c0.2,0.3,0.4,0.6,0.5,0.9c0.1,0.3,0.2,0.7,0.3,1c0.1,0.4,0.1,0.7,0.1,1.1c0,0.8-0.1,1.5-0.4,2.2
			c-0.3,0.7-0.7,1.2-1.3,1.6c-0.3,0.2-0.7,0.4-1.1,0.5c-0.4,0.1-0.8,0.2-1.2,0.3c-0.4,0-0.8,0.1-1.3,0.1H241.6z M243.4,630.6
			c0.1,0,0.2,0,0.3,0c0.1,0,0.1,0,0.2,0c0.5,0,1-0.1,1.5-0.2c0.4-0.1,0.8-0.3,1.1-0.6c0.3-0.3,0.6-0.6,0.7-1
			c0.2-0.4,0.3-0.9,0.3-1.5c0-0.6-0.1-1.1-0.4-1.6c-0.2-0.5-0.6-0.9-1-1.1c-0.2-0.1-0.4-0.2-0.6-0.3c-0.2-0.1-0.4-0.1-0.7-0.1
			c-0.2,0-0.5,0-0.8-0.1c-0.3,0-0.5,0-0.6,0V630.6z M253,632h-1.9v-9.3h1.9V632z M254.8,631.8l0.2-1.7c0.7,0.4,1.4,0.6,2.1,0.6
			c0.4,0,0.8-0.1,1.1-0.3c0.3-0.2,0.5-0.5,0.5-0.9c0-0.4-0.1-0.7-0.4-0.9c-0.3-0.2-0.8-0.4-1.5-0.7c-0.7-0.3-1.3-0.7-1.6-1
			c-0.4-0.4-0.5-0.9-0.5-1.7c0-0.6,0.1-1.1,0.4-1.5c0.3-0.4,0.7-0.7,1.2-0.9c0.5-0.2,1-0.3,1.6-0.3c0.8,0,1.5,0.1,2.2,0.4l-0.2,1.5
			c-0.7-0.3-1.3-0.5-1.9-0.5c-0.4,0-0.7,0.1-1.1,0.3c-0.3,0.2-0.4,0.5-0.4,0.8c0,0.4,0.1,0.6,0.3,0.8c0.2,0.1,0.7,0.4,1.5,0.7
			c0.8,0.3,1.4,0.7,1.7,1.1c0.4,0.4,0.6,0.9,0.6,1.7c0,0.5-0.1,0.9-0.3,1.3c-0.2,0.4-0.4,0.7-0.8,0.9c-0.3,0.2-0.7,0.4-1.1,0.5
			c-0.4,0.1-0.9,0.2-1.4,0.2C256.4,632.2,255.7,632.1,254.8,631.8z M265.8,632h-1.9v-7.8h-2.7v-1.5h7.2v1.5h-2.7V632z M277.9,632
			h-2.1l-0.8-2.1h-3.9l-0.8,2.1h-1.9l3.6-9.3h2.1L277.9,632z M274.4,628.3l-1.2-3.3c0-0.1-0.1-0.3-0.2-0.6c0,0.1-0.1,0.3-0.1,0.4
			c0,0.1-0.1,0.3-0.1,0.3l-1.1,3.1H274.4z M286.5,632h-2.3l-3.1-5.6c-0.2-0.4-0.5-0.9-0.8-1.7c0.1,1,0.2,1.8,0.2,2.4v4.9h-1.8v-9.3
			h2.2l3.1,5.7c0.1,0.2,0.2,0.3,0.2,0.4c0,0.1,0.1,0.3,0.2,0.5c0.1,0.2,0.2,0.5,0.3,0.7c-0.1-0.7-0.2-1.4-0.2-2.3v-5h1.8V632z
			 M295.1,630.1l0.1,1.6c-0.8,0.2-1.5,0.3-2.1,0.3c-0.7,0-1.4-0.1-2-0.3c-0.6-0.2-1.2-0.5-1.6-0.9c-0.5-0.4-0.8-0.9-1.1-1.5
			c-0.3-0.6-0.4-1.3-0.4-2c0-0.8,0.1-1.4,0.3-2c0.2-0.6,0.6-1.1,1-1.5c0.4-0.4,1-0.7,1.6-0.9c0.6-0.2,1.3-0.3,2-0.3
			c0.7,0,1.4,0.1,2.2,0.4l-0.1,1.6c-0.6-0.3-1.3-0.5-2-0.5c-0.6,0-1.1,0.1-1.6,0.4c-0.5,0.3-0.8,0.6-1.1,1.1c-0.2,0.5-0.4,1-0.4,1.6
			c0,0.6,0.1,1.2,0.4,1.7c0.3,0.5,0.6,0.9,1.1,1.2s1,0.4,1.7,0.4C293.8,630.5,294.4,630.4,295.1,630.1z M301.9,630.5v1.5h-5.6v-9.3
			h5.5v1.5h-3.6v2.3h3.3v1.5h-3.3v2.5H301.9z"/>
		<path class="st1" d="M117.4,564.6l-0.2,2.2c-0.6-0.4-1.1-0.6-1.6-0.7c-0.5-0.1-1.1-0.2-1.7-0.2c-0.9,0-1.7,0.1-2.4,0.4
			c-0.7,0.3-1.4,0.7-1.9,1.2c-0.5,0.5-1,1.2-1.3,1.9c-0.3,0.7-0.4,1.5-0.4,2.4c0,1.2,0.3,2.2,0.8,3.2c0.5,0.9,1.3,1.7,2.2,2.2
			c0.9,0.5,2,0.8,3.2,0.8c1.1,0,2.2-0.2,3.4-0.7l0.2,2.2c-0.6,0.2-1.2,0.3-1.7,0.4c-0.5,0.1-1.1,0.1-1.8,0.1c-1.7,0-3.2-0.3-4.5-1
			c-1.3-0.6-2.3-1.6-3.1-2.8c-0.7-1.2-1.1-2.7-1.1-4.4c0-1.5,0.4-2.9,1.1-4.1c0.7-1.2,1.7-2.2,3-2.8c1.3-0.7,2.7-1,4.3-1
			C115.2,563.9,116.4,564.1,117.4,564.6z M129.4,568.3v7.4c0,0.6,0.1,2.1,0.2,4.3h-2l-0.1-1.8c-0.5,0.7-1,1.2-1.7,1.5
			c-0.7,0.3-1.4,0.5-2.2,0.5c-1.6,0-2.8-0.5-3.4-1.5c-0.6-1-0.9-2.4-0.9-4.1v-6.2h2.2v5.4c0,0.4,0,0.9,0,1.3c0,0.5,0.1,0.8,0.1,1.1
			c0,0.3,0.1,0.5,0.2,0.7c0.2,0.5,0.5,0.9,0.9,1.2c0.4,0.3,0.9,0.4,1.4,0.4c0.5,0,1-0.1,1.4-0.3c0.4-0.2,0.8-0.5,1-0.9
			c0.3-0.4,0.5-0.8,0.7-1.3c0.2-0.5,0.2-1.1,0.2-1.7v-0.8v-5.1H129.4z M132.4,568.3h2l0.1,2.1c0.4-0.7,0.8-1.3,1.4-1.7
			c0.6-0.4,1.2-0.6,2-0.6c0.4,0,0.8,0.1,1.2,0.2v2c-0.4-0.1-0.7-0.2-1-0.2c-0.8,0-1.4,0.2-1.9,0.7c-0.5,0.4-0.9,1-1.1,1.7
			c-0.2,0.7-0.3,1.4-0.3,2.1v0.8v4.6h-2.2v-7.1C132.5,571.7,132.5,570.2,132.4,568.3z M140.5,568.3h2l0.1,2.1
			c0.4-0.7,0.8-1.3,1.4-1.7c0.6-0.4,1.2-0.6,2-0.6c0.4,0,0.8,0.1,1.2,0.2v2c-0.4-0.1-0.7-0.2-1-0.2c-0.8,0-1.4,0.2-1.9,0.7
			c-0.5,0.4-0.9,1-1.1,1.7c-0.2,0.7-0.3,1.4-0.3,2.1v0.8v4.6h-2.2v-7.1C140.6,571.7,140.6,570.2,140.5,568.3z M150,574.7
			c0.2,1.2,0.6,2.1,1.3,2.8c0.7,0.7,1.6,1,2.6,1c0.6,0,1.2-0.1,1.8-0.3c0.6-0.2,1.2-0.5,1.8-0.8v2.1c-0.7,0.3-1.4,0.5-1.9,0.7
			c-0.6,0.1-1.2,0.2-1.8,0.2c-0.9,0-1.7-0.1-2.5-0.4c-0.7-0.3-1.4-0.7-1.9-1.3c-0.5-0.6-0.9-1.2-1.2-2c-0.3-0.8-0.4-1.7-0.4-2.6
			c0-1.2,0.2-2.2,0.7-3.2s1.1-1.6,1.9-2.1c0.8-0.5,1.8-0.8,2.9-0.8c1.3,0,2.3,0.3,3,0.9c0.8,0.6,1.3,1.4,1.6,2.4
			c0.3,1,0.5,2.1,0.5,3.4H150z M150,573h6.2c-0.1-0.6-0.2-1.2-0.4-1.7c-0.2-0.5-0.5-0.9-1-1.2c-0.4-0.3-1-0.4-1.6-0.4
			c-0.9,0-1.6,0.3-2.2,0.9C150.5,571.2,150.2,572,150,573z M162.6,568.3l0.1,1.9c0.9-1.4,2.2-2.1,4-2.1c1,0,1.8,0.2,2.4,0.5
			c0.6,0.4,1,0.8,1.3,1.4c0.3,0.6,0.5,1.2,0.5,1.9c0.1,0.7,0.1,1.6,0.1,2.6v5.4h-2.2v-5.3c0-0.8,0-1.5,0-1.8c0-0.4-0.1-0.7-0.1-1
			c-0.2-0.6-0.5-1.1-0.9-1.4c-0.4-0.3-1-0.5-1.6-0.5c-0.7,0-1.4,0.2-1.9,0.6c-0.6,0.4-1,1-1.2,1.8c-0.1,0.2-0.1,0.5-0.2,0.7
			c0,0.3-0.1,0.6-0.1,0.9c0,0.3,0,0.9,0,1.7v4.3h-2.2v-5.8c0-0.7,0-1.3,0-1.8c0-0.6,0-1.2,0-2c0-0.8,0-1.5-0.1-2.1H162.6z
			 M176.8,564.9v3.4h3.1v1.7h-3.1v4.6c0,1.1,0,1.8,0.1,2.3c0.1,0.4,0.3,0.8,0.6,1c0.3,0.2,0.7,0.4,1.2,0.4c0.5,0,0.9-0.1,1.4-0.4
			v1.9c-0.7,0.2-1.4,0.3-2,0.3c-1,0-1.8-0.2-2.3-0.6c-0.5-0.4-0.8-1-1-1.6c-0.1-0.7-0.2-1.5-0.2-2.6V570h-2.7v-1.7h2.7v-2.7
			L176.8,564.9z M188.5,564h3.2c1.1,0,2,0,2.5,0.1c0.6,0.1,1.1,0.2,1.5,0.4c0.9,0.3,1.6,0.9,2.1,1.7c0.5,0.8,0.8,1.7,0.8,2.7
			c0,0.7-0.1,1.3-0.4,1.9c-0.2,0.6-0.6,1.1-1,1.5c-0.4,0.4-0.9,0.8-1.5,1c-0.4,0.2-0.9,0.3-1.5,0.4c-0.6,0.1-1.3,0.1-2.2,0.1h-1.3
			v6.4h-2.3V564z M190.8,566v5.7h1.2c1.2,0,2.2-0.2,3-0.6c0.8-0.4,1.2-1.2,1.2-2.3c0-0.5-0.1-1-0.4-1.4c-0.2-0.4-0.6-0.7-1.1-0.9
			c-0.5-0.2-1-0.4-1.7-0.4C192.6,566,191.8,566,190.8,566z M200.3,568.3h2l0.1,2.1c0.4-0.7,0.8-1.3,1.4-1.7c0.6-0.4,1.2-0.6,2-0.6
			c0.4,0,0.8,0.1,1.2,0.2v2c-0.4-0.1-0.7-0.2-1-0.2c-0.8,0-1.4,0.2-1.9,0.7c-0.5,0.4-0.9,1-1.1,1.7c-0.2,0.7-0.3,1.4-0.3,2.1v0.8
			v4.6h-2.2v-7.1C200.4,571.7,200.4,570.2,200.3,568.3z M219.6,574.2c0,1.2-0.3,2.2-0.8,3.2c-0.5,0.9-1.2,1.7-2.2,2.2
			c-0.9,0.5-2,0.8-3.1,0.8c-1.1,0-2.2-0.3-3.1-0.8c-0.9-0.5-1.6-1.3-2.1-2.2c-0.5-1-0.8-2-0.8-3.2c0-0.9,0.1-1.7,0.4-2.5
			c0.3-0.8,0.7-1.4,1.3-2c0.5-0.6,1.2-1,1.9-1.3c0.7-0.3,1.5-0.5,2.4-0.5c0.9,0,1.7,0.1,2.4,0.4c0.7,0.3,1.4,0.7,1.9,1.3
			c0.5,0.6,1,1.2,1.2,2C219.5,572.4,219.6,573.3,219.6,574.2z M217.3,574.2c0-0.6-0.1-1.2-0.3-1.8c-0.2-0.6-0.4-1.1-0.8-1.5
			c-0.3-0.4-0.7-0.7-1.2-0.9c-0.4-0.2-0.9-0.3-1.5-0.3c-1.1,0-2,0.4-2.7,1.3c-0.7,0.8-1.1,1.9-1.1,3.2c0,0.9,0.2,1.6,0.5,2.3
			c0.3,0.7,0.8,1.2,1.3,1.6c0.6,0.4,1.2,0.6,1.9,0.6c0.7,0,1.3-0.2,1.9-0.6c0.6-0.4,1-0.9,1.3-1.6
			C217.2,575.8,217.3,575,217.3,574.2z M232.1,568.2v9.7c0,1.2-0.1,2.2-0.2,3c-0.1,0.8-0.4,1.6-0.8,2.2c-0.4,0.6-1,1.1-1.7,1.4
			c-0.8,0.3-1.7,0.5-3,0.5c-1.5,0-3-0.3-4.5-0.8l0.2-2.1c1.5,0.7,2.9,1.1,4.2,1.1c0.8,0,1.5-0.2,2-0.5c0.6-0.3,1-0.7,1.2-1.3
			c0.2-0.3,0.3-0.6,0.3-1c0.1-0.4,0.1-0.8,0.1-1.3c0-0.5,0-0.9,0-1.1c-0.9,1.3-2.2,1.9-3.9,1.9c-1,0-1.9-0.2-2.7-0.7
			c-0.8-0.5-1.4-1.2-1.8-2c-0.4-0.9-0.6-1.9-0.6-3.1c0-1.2,0.2-2.2,0.6-3.2c0.4-0.9,1-1.7,1.8-2.2c0.8-0.5,1.7-0.8,2.7-0.8
			c0.9,0,1.7,0.2,2.4,0.6c0.7,0.4,1.2,0.9,1.5,1.6c0-0.1,0-0.1,0-0.2c0,0,0-0.1,0-0.1l0-0.3v-1.5H232.1z M226.6,569.9
			c-0.6,0-1.2,0.2-1.7,0.6c-0.5,0.4-0.9,0.9-1.2,1.5c-0.3,0.6-0.4,1.4-0.4,2.2c0,0.8,0.1,1.5,0.4,2.1c0.3,0.6,0.7,1.1,1.2,1.4
			c0.5,0.3,1,0.5,1.7,0.5c0.5,0,1-0.1,1.4-0.3c0.4-0.2,0.8-0.5,1.1-0.9c0.3-0.4,0.5-0.8,0.7-1.3c0.2-0.5,0.2-1.1,0.2-1.7
			c0-0.8-0.1-1.5-0.4-2.1c-0.3-0.6-0.7-1.1-1.2-1.5C227.8,570.1,227.2,569.9,226.6,569.9z M234.7,568.3h2l0.1,2.1
			c0.4-0.7,0.8-1.3,1.4-1.7c0.6-0.4,1.2-0.6,2-0.6c0.4,0,0.8,0.1,1.2,0.2v2c-0.4-0.1-0.7-0.2-1-0.2c-0.8,0-1.4,0.2-1.9,0.7
			c-0.5,0.4-0.9,1-1.1,1.7c-0.2,0.7-0.3,1.4-0.3,2.1v0.8v4.6h-2.2v-7.1C234.9,571.7,234.8,570.2,234.7,568.3z M244.3,574.7
			c0.2,1.2,0.6,2.1,1.3,2.8c0.7,0.7,1.6,1,2.6,1c0.6,0,1.2-0.1,1.8-0.3c0.6-0.2,1.2-0.5,1.8-0.8v2.1c-0.7,0.3-1.4,0.5-1.9,0.7
			c-0.6,0.1-1.2,0.2-1.8,0.2c-0.9,0-1.7-0.1-2.5-0.4c-0.7-0.3-1.4-0.7-1.9-1.3c-0.5-0.6-0.9-1.2-1.2-2c-0.3-0.8-0.4-1.7-0.4-2.6
			c0-1.2,0.2-2.2,0.7-3.2c0.5-0.9,1.1-1.6,1.9-2.1c0.8-0.5,1.8-0.8,2.9-0.8c1.3,0,2.3,0.3,3,0.9c0.8,0.6,1.3,1.4,1.6,2.4
			c0.3,1,0.5,2.1,0.5,3.4H244.3z M244.3,573h6.2c-0.1-0.6-0.2-1.2-0.4-1.7c-0.2-0.5-0.5-0.9-1-1.2c-0.4-0.3-1-0.4-1.6-0.4
			c-0.9,0-1.6,0.3-2.2,0.9C244.8,571.2,244.5,572,244.3,573z M260.8,568.6l-0.2,1.8c-0.8-0.4-1.6-0.6-2.4-0.6
			c-0.6,0-1.1,0.1-1.4,0.4c-0.4,0.3-0.5,0.6-0.5,1.1c0,0.5,0.2,0.8,0.5,1c0.4,0.2,1,0.6,1.9,1c0.9,0.4,1.6,0.9,2.1,1.4
			c0.5,0.5,0.7,1.1,0.7,1.9c0,0.5-0.1,1-0.3,1.5c-0.2,0.4-0.5,0.8-0.9,1.1c-0.4,0.3-0.8,0.6-1.4,0.7c-0.5,0.2-1.1,0.2-1.7,0.2
			c-1.1,0-2.1-0.2-3-0.7v-1.9c0.6,0.3,1.1,0.5,1.5,0.6c0.4,0.1,0.8,0.2,1.3,0.2c0.4,0,0.8-0.1,1.2-0.2s0.6-0.3,0.8-0.6
			c0.2-0.2,0.3-0.5,0.3-0.8c0-0.4-0.2-0.8-0.6-1c-0.4-0.2-1-0.6-1.9-1.1c-0.9-0.5-1.6-0.9-2-1.4c-0.5-0.5-0.7-1.1-0.7-1.8
			c0-0.7,0.2-1.3,0.5-1.8c0.3-0.5,0.8-0.9,1.4-1.2c0.6-0.3,1.3-0.4,2.1-0.4C258.9,568.1,259.8,568.2,260.8,568.6z M269.3,568.6
			l-0.2,1.8c-0.8-0.4-1.6-0.6-2.4-0.6c-0.6,0-1.1,0.1-1.4,0.4c-0.4,0.3-0.5,0.6-0.5,1.1c0,0.5,0.2,0.8,0.5,1c0.4,0.2,1,0.6,1.9,1
			c0.9,0.4,1.6,0.9,2.1,1.4c0.5,0.5,0.7,1.1,0.7,1.9c0,0.5-0.1,1-0.3,1.5c-0.2,0.4-0.5,0.8-0.9,1.1c-0.4,0.3-0.8,0.6-1.4,0.7
			c-0.5,0.2-1.1,0.2-1.7,0.2c-1.1,0-2.1-0.2-3-0.7v-1.9c0.6,0.3,1.1,0.5,1.5,0.6c0.4,0.1,0.8,0.2,1.3,0.2c0.4,0,0.8-0.1,1.2-0.2
			c0.3-0.1,0.6-0.3,0.8-0.6c0.2-0.2,0.3-0.5,0.3-0.8c0-0.4-0.2-0.8-0.6-1c-0.4-0.2-1-0.6-1.9-1.1c-0.9-0.5-1.6-0.9-2-1.4
			c-0.5-0.5-0.7-1.1-0.7-1.8c0-0.7,0.2-1.3,0.5-1.8c0.3-0.5,0.8-0.9,1.4-1.2c0.6-0.3,1.3-0.4,2.1-0.4
			C267.4,568.1,268.3,568.2,269.3,568.6z"/>
		<ellipse class="st6" cx="43.9" cy="488" rx="6" ry="6"/>
		<ellipse class="st6" cx="162.6" cy="452" rx="6" ry="6"/>
		<ellipse class="st6" cx="318.1" cy="359" rx="6" ry="6"/>
		<ellipse class="st6" cx="156.6" cy="232" rx="6" ry="6"/>
		<ellipse class="st6" cx="192.5" cy="329" rx="6" ry="6"/>
	</g>
</g>
</svg>
