<?xml version="1.0" encoding="utf-8"?>
<!-- Generator: Adobe Illustrator 26.2.1, SVG Export Plug-In . SVG Version: 6.00 Build 0)  -->
<svg version="1.1" id="Layer_1" xmlns="http://www.w3.org/2000/svg" xmlns:xlink="http://www.w3.org/1999/xlink" x="0px" y="0px"
	 viewBox="0 0 375 360" style="enable-background:new 0 0 375 360;" xml:space="preserve">
<style type="text/css">
	.st0{fill:#FFFFFF;}
	.st1{fill:#DBEAE1;}
	.st2{fill:#1E8A49;}
</style>
<path class="st0" d="M20,0h335c11,0,20,3.8,20,8.4v324.2c0,4.6-9,8.4-20,8.4H20c-11,0-20-3.8-20-8.4V8.4C0,3.8,9,0,20,0z"/>
<circle class="st1" cx="182" cy="174" r="97"/>
<path class="st2" d="M110,152.6c0,0,27.2-6.3,46.4,6.3c0,0,3.2,23.7,16,23.7v-11.1c0,0,3.2,6.3,9.6,6.3s9.6-6.3,9.6-6.3v11.1
	c12.8,0,16-23.7,16-23.7c19.2-12.7,46.4-6.3,46.4-6.3c-12.8,6.3-14.4,28.5-14.4,28.5c-25.6,0-25.6,20.6-25.6,20.6
	c-32-6.3-32,17.4-32,17.4s0-23.7-32-17.4c0,0,0-20.6-25.6-20.6C124.4,181,122.8,158.9,110,152.6z"/>
</svg>
